<?xml version="1.0" encoding="UTF-8"?>
<svg xmlns="http://www.w3.org/2000/svg" version="1.1" viewBox="0 0 30 30">
  <defs>
    <style>
      .cls-1 {
        fill: #231f20;
      }
    </style>
  </defs>
  <!-- Generator: Adobe Illustrator 28.7.1, SVG Export Plug-In . SVG Version: 1.2.0 Build 142)  -->
  <g>
    <g id="Layer_1">
      <g id="Layer_2">
        <path class="cls-1" d="M7.96,7.09v15.82c0,.44.46.73.86.53l15.82-7.91c.44-.22.44-.84,0-1.06l-15.82-7.91c-.4-.2-.86.09-.86.53Z"/>
      </g>
      <path class="cls-1" d="M15,29.94C6.76,29.94.06,23.24.06,15S6.76.06,15,.06s14.94,6.7,14.94,14.94-6.7,14.94-14.94,14.94ZM15,1.56C7.59,1.56,1.56,7.59,1.56,15s6.03,13.44,13.44,13.44,13.44-6.03,13.44-13.44S22.41,1.56,15,1.56Z"/>
    </g>
  </g>
</svg>