<?xml version="1.0" encoding="UTF-8"?>
<svg xmlns="http://www.w3.org/2000/svg" version="1.1" viewBox="0 0 30 30">
  <defs>
    <style>
      .cls-1 {
        fill: none;
      }
    </style>
  </defs>
  <!-- Generator: Adobe Illustrator 28.7.1, SVG Export Plug-In . SVG Version: 1.2.0 Build 142)  -->
  <g>
    <g id="Layer_1">
      <path class="cls-1" d="M20.1,7.3"/>
      <path d="M19.8,6.4c-.4,0-.8.3-.8.8v6.8l-9.3-7.5c-.4-.2-.9,0-.9.5v15.8c0,.4.5.7.9.5l9.3-7.5v6.8c0,.4.3.8.8.8s.8-.3.8-.8V7.1c0-.4-.3-.8-.8-.8Z"/>
      <path d="M15,29.9C6.8,29.9,0,23.2,0,15S6.8,0,15,0s14.9,6.7,14.9,14.9-6.7,14.9-14.9,14.9ZM15,1.6C7.6,1.6,1.6,7.6,1.6,15s6,13.4,13.4,13.4,13.4-6,13.4-13.4S22.4,1.6,15,1.6Z"/>
    </g>
  </g>
</svg>