<?xml version="1.0" encoding="UTF-8"?>
<svg xmlns="http://www.w3.org/2000/svg" version="1.1" viewBox="0 0 30 30">
  <defs>
    <style>
      .cls-1 {
        fill: #231f20;
      }
    </style>
  </defs>
  <!-- Generator: Adobe Illustrator 28.7.1, SVG Export Plug-In . SVG Version: 1.2.0 Build 142)  -->
  <g>
    <g id="Layer_1">
      <path class="cls-1" d="M15,29.94C6.76,29.94.06,23.24.06,15S6.76.06,15,.06s14.94,6.7,14.94,14.94-6.7,14.94-14.94,14.94ZM15,1.56C7.59,1.56,1.56,7.59,1.56,15s6.03,13.44,13.44,13.44,13.44-6.03,13.44-13.44S22.41,1.56,15,1.56Z"/>
      <path class="cls-1" d="M13.82,23.71c-.66,0-1.3-.3-1.72-.81l-5.98-7.27c-.5-.61-.42-1.52.2-2.02.61-.51,1.52-.42,2.02.2l5.42,6.58,7.04-10.98c.43-.67,1.32-.86,1.98-.43.67.43.86,1.32.43,1.98l-7.52,11.72c-.38.6-1.03.98-1.74,1.02-.04,0-.09,0-.13,0Z"/>
    </g>
  </g>
</svg>